<svg width="285" height="32" viewBox="0 0 285 32" fill="none" xmlns="http://www.w3.org/2000/svg">
<path d="M17.7803 29.1486C15.5331 31.7631 13.6198 31.8083 10.6506 29.3386C9.49537 30.4875 8.14163 31.2655 6.43592 31.3469C3.03352 31.5098 0.289938 29.1215 0.136514 25.7018C0.0282144 23.3678 0.0191895 21.0247 0.127489 18.6997C0.172613 17.7589 0.67801 16.8451 0.912658 15.9133C0.993883 15.6057 1.01193 15.1625 0.849484 14.9272C-0.134234 13.4888 -0.287658 11.9961 0.515561 10.4582C1.69783 8.19653 2.86204 5.91677 4.14359 3.71843C5.58758 1.23964 8.26798 0.850638 10.4881 2.66902C10.5784 2.75044 10.6957 2.80472 10.7859 2.86804C12.7624 1.06776 15.0096 1.00443 16.8868 2.75044C17.7261 2.34334 18.4842 1.7734 19.3326 1.59246C21.1105 1.2125 22.5906 1.891 23.5291 3.44703C24.9912 5.88058 26.4262 8.33223 27.7799 10.8291C28.529 12.2042 28.3485 13.6245 27.5543 14.9815C27.4008 15.2439 27.3286 15.6962 27.455 15.9495C28.3665 17.7589 28.4026 19.5682 27.7257 21.4499C27.6084 21.7846 27.5994 22.255 27.7438 22.5807C28.917 25.2495 28.1499 28.4068 25.8847 30.0623C23.5833 31.736 20.5058 31.555 18.3127 29.619C18.1503 29.4743 17.9878 29.3386 17.7803 29.1486ZM3.90894 15.2348C3.80966 15.2258 3.71039 15.2077 3.61111 15.1987C2.89814 16.5285 1.96858 17.7317 2.03175 19.4144C2.11297 21.3413 2.0498 23.2683 2.06785 25.1952C2.06785 25.6023 2.11297 26.0185 2.21225 26.4075C2.6635 28.1535 4.21578 29.3838 6.00272 29.4291C7.76258 29.4743 9.55855 28.3977 9.84735 26.6789C10.1271 25.0414 9.91052 23.3135 9.91052 21.6037C9.77515 21.6218 9.63977 21.6127 9.5405 21.667C7.15791 22.9064 3.65624 20.9071 3.90894 17.6684C3.97211 16.8632 3.91796 16.049 3.91796 15.2348H3.90894ZM18.2405 21.4499C18.3127 22.9969 18.2586 24.4534 18.4662 25.8647C18.8001 28.1806 20.93 29.619 23.1321 29.1667C25.3522 28.7053 26.9135 26.3803 26.1735 24.2182C25.659 22.7164 24.6663 21.3775 23.827 19.8577C22.3108 21.9113 20.5238 22.3817 18.2405 21.4499ZM5.8132 14.7101C5.8132 14.7101 5.83125 14.7101 5.84027 14.7101C5.84027 15.7867 5.8132 16.8632 5.84027 17.9307C5.8854 19.2063 6.73374 20.0838 7.87991 20.111C8.98998 20.1381 9.9376 19.2244 9.94662 17.9669C9.96467 15.85 9.91954 13.7331 9.83832 11.6252C9.7932 10.4944 8.82753 9.67114 7.76259 9.72542C6.68862 9.7797 5.84027 10.6482 5.8132 11.779C5.78612 12.756 5.8132 13.7331 5.8132 14.7192V14.7101ZM17.1214 9.65304C17.1214 9.65304 17.1214 9.67114 17.1214 9.68923C16.1467 9.68923 15.1721 9.68018 14.1883 9.68923C12.8797 9.70732 12.0043 10.4763 11.9592 11.6433C11.905 12.8465 12.7714 13.7693 14.1071 13.7874C16.1558 13.8145 18.2044 13.7783 20.2441 13.7059C21.4354 13.6607 22.2927 12.7289 22.2657 11.6343C22.2476 10.5849 21.3902 9.71637 20.235 9.66209C19.1972 9.61686 18.1593 9.65304 17.1214 9.65304ZM12.1758 21.4861C12.1758 23.4944 12.1126 25.4485 12.2029 27.4026C12.257 28.5334 13.1505 29.221 14.2425 29.221C15.2172 29.221 16.1829 28.5063 16.219 27.5473C16.2911 25.539 16.237 23.5216 16.237 21.3685C14.8201 22.1646 13.4573 22.0922 12.1758 21.4861ZM16.0114 5.52776C16.0204 4.46026 15.0638 3.46512 13.9808 3.43798C12.8797 3.41084 11.9141 4.32456 11.887 5.4373C11.8509 6.55908 12.8436 7.5904 13.9537 7.58136C15.0277 7.58136 16.0024 6.60432 16.0114 5.52776ZM7.73551 7.61754C8.84558 7.61754 9.78417 6.67669 9.80222 5.58204C9.82027 4.46026 8.80948 3.47417 7.67234 3.50131C6.59837 3.52845 5.6327 4.53263 5.65075 5.60014C5.67782 6.71288 6.61642 7.62659 7.73551 7.61754ZM16.1197 17.9036C16.0926 16.7547 15.1991 15.9043 14.0349 15.9224C12.9158 15.9405 12.0314 16.8813 12.0675 18.0122C12.1036 19.152 13.0331 20.0477 14.1522 20.0115C15.2804 19.9753 16.1377 19.0525 16.1197 17.9036ZM20.3614 15.8862C19.2152 15.841 18.3398 16.6099 18.2857 17.7227C18.2315 18.9892 18.9986 19.8939 20.1809 19.9301C21.309 19.9753 22.2386 19.1249 22.2837 17.9941C22.3379 16.8451 21.4985 15.9314 20.3524 15.8862H20.3614ZM20.1899 7.44566C21.3271 7.44566 22.1483 6.6405 22.1754 5.50967C22.2025 4.3336 21.291 3.4018 20.1177 3.41084C19.0257 3.41084 18.1322 4.27932 18.1142 5.35588C18.0871 6.5048 19.0257 7.44566 20.1899 7.44566ZM22.9335 14.692C24.0075 16.4109 25.0273 18.0303 26.0381 19.6496C26.4803 17.1708 24.7114 15.651 23.8089 13.6336C23.4208 14.104 23.1591 14.4116 22.9335 14.683V14.692ZM22.8794 8.44984C23.9353 10.1687 24.9551 11.8061 25.9749 13.4526C26.0652 13.4074 26.1554 13.3622 26.2366 13.326C26.4081 10.9648 24.3865 9.56258 23.6465 7.43661C23.2674 7.93418 23.0418 8.22367 22.8703 8.44984H22.8794ZM4.12554 7.4728C3.58404 9.57162 1.67978 10.9919 2.28445 13.3079C3.20499 11.7609 4.12554 10.2139 5.08218 8.60363C4.85656 8.33223 4.57678 8.00655 4.12554 7.4728Z" fill="white"/>
<path d="M39.1698 0.730957V30.6845H34.9822V0.730957H39.1698Z" fill="white"/>
<path d="M61.9579 4.82187C60.559 3.85388 58.7811 3.37441 56.6061 3.37441C55.7216 3.37441 54.8552 3.45583 54.0069 3.62771C53.1585 3.7996 52.4004 4.071 51.7416 4.46905C51.0828 4.85806 50.5503 5.38276 50.1532 6.04317C49.7561 6.70358 49.5576 7.51778 49.5576 8.49482C49.5576 9.41758 49.8464 10.1685 50.415 10.7384C50.9835 11.3083 51.7507 11.7788 52.7073 12.1406C53.6639 12.5025 54.7379 12.801 55.9472 13.0453C57.1476 13.2805 58.3749 13.5429 59.6204 13.8233C60.8658 14.1037 62.0932 14.4294 63.2935 14.8094C64.4939 15.1893 65.5769 15.696 66.5335 16.3383C67.4901 16.9806 68.2482 17.7948 68.8258 18.7718C69.3944 19.7489 69.6832 20.9792 69.6832 22.4629C69.6832 24.0551 69.3132 25.4211 68.5641 26.552C67.815 27.6828 66.8494 28.6055 65.6761 29.3202C64.5029 30.0349 63.1852 30.5506 61.7322 30.8763C60.2792 31.2019 58.8352 31.3557 57.3912 31.3557C55.6314 31.3557 53.9618 31.1477 52.3914 30.7225C50.8211 30.3063 49.4403 29.664 48.249 28.8136C47.0577 27.9632 46.1191 26.8686 45.4332 25.5387C44.7473 24.2089 44.3953 22.6348 44.3953 20.8164H48.3573C48.3573 22.0739 48.61 23.1595 49.1244 24.0641C49.6388 24.9688 50.3157 25.7197 51.146 26.3077C51.9853 26.8957 52.96 27.33 54.0791 27.6104C55.1982 27.8909 56.3353 28.0266 57.5176 28.0266C58.4562 28.0266 59.4038 27.9451 60.3604 27.7733C61.3171 27.6014 62.1745 27.3209 62.9325 26.9138C63.6997 26.5067 64.3134 25.9549 64.7827 25.2583C65.252 24.5617 65.4866 23.6661 65.4866 22.5714C65.4866 21.5401 65.1978 20.6988 64.6292 20.0565C64.0607 19.4141 63.2935 18.8894 62.3369 18.4823C61.3803 18.0752 60.3063 17.7496 59.0969 17.4962C57.8966 17.2429 56.6692 16.9896 55.4238 16.7182C54.1784 16.4559 52.951 16.1483 51.7506 15.7955C50.5503 15.4427 49.4673 14.9813 48.5107 14.4113C47.5541 13.8414 46.796 13.0996 46.2184 12.1859C45.6498 11.2812 45.361 10.1413 45.361 8.76622C45.361 7.25542 45.6859 5.9527 46.3267 4.83996C46.9674 3.73627 47.8338 2.82256 48.8988 2.11692C49.9727 1.40223 51.1911 0.86848 52.5539 0.524706C53.9166 0.171887 55.3245 0 56.7595 0C58.375 0 59.8731 0.180933 61.2539 0.5428C62.6347 0.904666 63.8441 1.48365 64.891 2.26167C65.9288 3.04873 66.7591 4.03481 67.3548 5.21992C67.9594 6.40504 68.2843 7.82536 68.3475 9.4809H64.3856C64.1509 7.3278 63.3387 5.77177 61.9398 4.80378L61.9579 4.82187Z" fill="white"/>
<path d="M73.9338 9.81536C74.5655 7.9246 75.5131 6.26002 76.7766 4.80351C78.0401 3.34699 79.6104 2.18902 81.4876 1.32054C83.3648 0.452062 85.5579 0.0178223 88.0488 0.0178223C90.5396 0.0178223 92.7327 0.452062 94.6099 1.32054C96.4871 2.18902 98.0574 3.34699 99.3209 4.80351C100.584 6.26002 101.532 7.9246 102.164 9.81536C102.796 11.7061 103.111 13.6692 103.111 15.7138C103.111 17.7583 102.796 19.7215 102.164 21.6122C101.532 23.503 100.584 25.1675 99.3209 26.6241C98.0574 28.0806 96.4871 29.2295 94.6099 30.0889C92.7327 30.9393 90.5396 31.3645 88.0488 31.3645C85.5579 31.3645 83.3648 30.9393 81.4876 30.0889C79.6104 29.2385 78.0401 28.0806 76.7766 26.6241C75.5131 25.1675 74.5655 23.503 73.9338 21.6122C73.302 19.7215 72.9861 17.7583 72.9861 15.7138C72.9861 13.6692 73.302 11.7061 73.9338 9.81536ZM77.7874 20.1738C78.2026 21.6393 78.8433 22.9602 79.7278 24.1362C80.6122 25.3123 81.7403 26.2531 83.1211 26.9678C84.502 27.6825 86.1445 28.0353 88.0578 28.0353C89.9711 28.0353 91.6136 27.6825 92.9944 26.9678C94.3752 26.2531 95.5034 25.3123 96.3878 24.1362C97.2722 22.9602 97.913 21.6393 98.3282 20.1738C98.7433 18.7082 98.9419 17.2155 98.9419 15.7047C98.9419 14.1939 98.7343 12.7012 98.3282 11.2357C97.922 9.77012 97.2722 8.44931 96.3878 7.27324C95.5034 6.09718 94.3752 5.15633 92.9944 4.44164C91.6136 3.72695 89.9711 3.37413 88.0578 3.37413C86.1445 3.37413 84.502 3.72695 83.1211 4.44164C81.7403 5.15633 80.6122 6.09718 79.7278 7.27324C78.8433 8.44931 78.2026 9.77012 77.7874 11.2357C77.3723 12.7012 77.1737 14.1939 77.1737 15.7047C77.1737 17.2155 77.3813 18.7082 77.7874 20.1738Z" fill="white"/>
<path d="M112.407 0.730957V27.3281H129.058V30.6845H108.228V0.730957H112.416H112.407Z" fill="white"/>
<path d="M154.418 0.730957V4.08727H136.892V13.6044H153.227V16.9607H136.892V27.3191H154.553V30.6754H132.713V0.730957H154.427H154.418Z" fill="white"/>
<path d="M182.738 0.730957V6.26751H166.132V12.6816H181.367V17.802H166.132V25.1479H183.09V30.6845H159.219V0.730957H182.738Z" fill="white"/>
<path d="M187.45 9.60728C188.154 7.68939 189.164 6.02481 190.491 4.59543C191.809 3.16606 193.433 2.05332 195.355 1.23912C197.278 0.424922 199.444 0.0178223 201.853 0.0178223C204.263 0.0178223 206.465 0.424922 208.369 1.23912C210.274 2.05332 211.889 3.16606 213.216 4.59543C214.533 6.02481 215.553 7.68939 216.257 9.60728C216.961 11.5252 217.313 13.5969 217.313 15.8404C217.313 18.084 216.961 20.0562 216.257 21.9469C215.553 23.8377 214.542 25.4751 213.216 26.8774C211.898 28.2796 210.283 29.3742 208.369 30.1703C206.456 30.9665 204.29 31.3645 201.853 31.3645C199.417 31.3645 197.278 30.9665 195.355 30.1703C193.433 29.3742 191.809 28.2796 190.491 26.8774C189.173 25.4751 188.154 23.8377 187.45 21.9469C186.746 20.0562 186.394 18.0207 186.394 15.8404C186.394 13.6602 186.746 11.5252 187.45 9.60728ZM193.767 19.5043C194.074 20.6894 194.57 21.766 195.238 22.7159C195.915 23.6658 196.79 24.4257 197.882 25.0047C198.965 25.5746 200.292 25.8641 201.844 25.8641C203.397 25.8641 204.723 25.5746 205.806 25.0047C206.889 24.4348 207.774 23.6658 208.451 22.7159C209.127 21.766 209.615 20.6985 209.922 19.5043C210.229 18.3192 210.382 17.0889 210.382 15.8314C210.382 14.5739 210.229 13.244 209.922 12.0137C209.615 10.7833 209.118 9.6887 208.451 8.72071C207.774 7.75272 206.889 6.98375 205.806 6.41381C204.723 5.84387 203.397 5.55438 201.844 5.55438C200.292 5.55438 198.965 5.84387 197.882 6.41381C196.799 6.98375 195.915 7.75272 195.238 8.72071C194.561 9.6887 194.074 10.7833 193.767 12.0137C193.46 13.244 193.307 14.5196 193.307 15.8314C193.307 17.1432 193.46 18.3102 193.767 19.5043Z" fill="white"/>
<path d="M228.937 0.730957V25.1479H244.261V30.6845H222.024V0.730957H228.937Z" fill="white"/>
<path d="M255.055 0.730957V30.6845H248.142V0.730957H255.055Z" fill="white"/>
<path d="M284.648 0.730957V6.26751H268.042V12.6816H283.276V17.802H268.042V25.1479H285V30.6845H261.129V0.730957H284.648Z" fill="white"/>
</svg>
