<svg width="251" height="32" viewBox="0 0 251 32" fill="none" xmlns="http://www.w3.org/2000/svg">
<path d="M5.16981 0.730957V30.6845H0.982239V0.730957H5.16981Z" fill="white"/>
<path d="M27.9579 4.82187C26.559 3.85388 24.7811 3.37441 22.6061 3.37441C21.7216 3.37441 20.8552 3.45583 20.0069 3.62771C19.1585 3.7996 18.4004 4.071 17.7416 4.46905C17.0828 4.85806 16.5503 5.38276 16.1532 6.04317C15.7561 6.70358 15.5576 7.51778 15.5576 8.49482C15.5576 9.41758 15.8464 10.1685 16.415 10.7384C16.9835 11.3083 17.7507 11.7788 18.7073 12.1406C19.6639 12.5025 20.7379 12.801 21.9472 13.0453C23.1476 13.2805 24.3749 13.5429 25.6204 13.8233C26.8658 14.1037 28.0932 14.4294 29.2935 14.8094C30.4939 15.1893 31.5769 15.696 32.5335 16.3383C33.4901 16.9806 34.2482 17.7948 34.8258 18.7718C35.3944 19.7489 35.6832 20.9792 35.6832 22.4629C35.6832 24.0551 35.3132 25.4211 34.5641 26.552C33.815 27.6828 32.8494 28.6055 31.6761 29.3202C30.5029 30.0349 29.1852 30.5506 27.7322 30.8763C26.2792 31.2019 24.8352 31.3557 23.3912 31.3557C21.6314 31.3557 19.9618 31.1477 18.3914 30.7225C16.8211 30.3063 15.4403 29.664 14.249 28.8136C13.0577 27.9632 12.1191 26.8686 11.4332 25.5387C10.7473 24.2089 10.3953 22.6348 10.3953 20.8164H14.3573C14.3573 22.0739 14.61 23.1595 15.1244 24.0641C15.6388 24.9688 16.3157 25.7197 17.146 26.3077C17.9853 26.8957 18.96 27.33 20.0791 27.6104C21.1982 27.8909 22.3353 28.0266 23.5176 28.0266C24.4562 28.0266 25.4038 27.9451 26.3604 27.7733C27.3171 27.6014 28.1745 27.3209 28.9325 26.9138C29.6997 26.5067 30.3134 25.9549 30.7827 25.2583C31.252 24.5617 31.4866 23.6661 31.4866 22.5714C31.4866 21.5401 31.1978 20.6988 30.6292 20.0565C30.0607 19.4141 29.2935 18.8894 28.3369 18.4823C27.3803 18.0752 26.3063 17.7496 25.0969 17.4962C23.8966 17.2429 22.6692 16.9896 21.4238 16.7182C20.1784 16.4559 18.951 16.1483 17.7506 15.7955C16.5503 15.4427 15.4673 14.9813 14.5107 14.4113C13.5541 13.8414 12.796 13.0996 12.2184 12.1859C11.6498 11.2812 11.361 10.1413 11.361 8.76622C11.361 7.25542 11.6859 5.9527 12.3267 4.83996C12.9674 3.73627 13.8338 2.82256 14.8988 2.11692C15.9727 1.40223 17.1911 0.86848 18.5539 0.524706C19.9166 0.171887 21.3245 0 22.7595 0C24.375 0 25.8731 0.180933 27.2539 0.5428C28.6347 0.904666 29.8441 1.48365 30.891 2.26167C31.9288 3.04873 32.7591 4.03481 33.3548 5.21992C33.9594 6.40504 34.2843 7.82536 34.3475 9.4809H30.3856C30.1509 7.3278 29.3387 5.77177 27.9398 4.80378L27.9579 4.82187Z" fill="white"/>
<path d="M39.9338 9.81536C40.5655 7.9246 41.5131 6.26002 42.7766 4.80351C44.0401 3.34699 45.6104 2.18902 47.4876 1.32054C49.3648 0.452062 51.5579 0.0178223 54.0488 0.0178223C56.5396 0.0178223 58.7327 0.452062 60.6099 1.32054C62.4871 2.18902 64.0574 3.34699 65.3209 4.80351C66.5844 6.26002 67.532 7.9246 68.1638 9.81536C68.7955 11.7061 69.1114 13.6692 69.1114 15.7138C69.1114 17.7583 68.7955 19.7215 68.1638 21.6122C67.532 23.503 66.5844 25.1675 65.3209 26.6241C64.0574 28.0806 62.4871 29.2295 60.6099 30.0889C58.7327 30.9393 56.5396 31.3645 54.0488 31.3645C51.5579 31.3645 49.3648 30.9393 47.4876 30.0889C45.6104 29.2385 44.0401 28.0806 42.7766 26.6241C41.5131 25.1675 40.5655 23.503 39.9338 21.6122C39.302 19.7215 38.9861 17.7583 38.9861 15.7138C38.9861 13.6692 39.302 11.7061 39.9338 9.81536ZM43.7874 20.1738C44.2026 21.6393 44.8433 22.9602 45.7278 24.1362C46.6122 25.3123 47.7403 26.2531 49.1211 26.9678C50.502 27.6825 52.1445 28.0353 54.0578 28.0353C55.9711 28.0353 57.6136 27.6825 58.9944 26.9678C60.3752 26.2531 61.5034 25.3123 62.3878 24.1362C63.2722 22.9602 63.913 21.6393 64.3282 20.1738C64.7433 18.7082 64.9419 17.2155 64.9419 15.7047C64.9419 14.1939 64.7343 12.7012 64.3282 11.2357C63.922 9.77012 63.2722 8.44931 62.3878 7.27324C61.5034 6.09718 60.3752 5.15633 58.9944 4.44164C57.6136 3.72695 55.9711 3.37413 54.0578 3.37413C52.1445 3.37413 50.502 3.72695 49.1211 4.44164C47.7403 5.15633 46.6122 6.09718 45.7278 7.27324C44.8433 8.44931 44.2026 9.77012 43.7874 11.2357C43.3723 12.7012 43.1737 14.1939 43.1737 15.7047C43.1737 17.2155 43.3813 18.7082 43.7874 20.1738Z" fill="white"/>
<path d="M78.407 0.730957V27.3281H95.058V30.6845H74.2285V0.730957H78.416H78.407Z" fill="white"/>
<path d="M120.418 0.730957V4.08727H102.892V13.6044H119.227V16.9607H102.892V27.3191H120.553V30.6754H98.7131V0.730957H120.427H120.418Z" fill="white"/>
<path d="M148.738 0.730957V6.26751H132.132V12.6816H147.367V17.802H132.132V25.1479H149.09V30.6845H125.219V0.730957H148.738Z" fill="white"/>
<path d="M153.45 9.60728C154.154 7.68939 155.164 6.02481 156.491 4.59543C157.809 3.16606 159.433 2.05332 161.355 1.23912C163.278 0.424922 165.444 0.0178223 167.853 0.0178223C170.263 0.0178223 172.465 0.424922 174.369 1.23912C176.274 2.05332 177.889 3.16606 179.216 4.59543C180.533 6.02481 181.553 7.68939 182.257 9.60728C182.961 11.5252 183.313 13.5969 183.313 15.8404C183.313 18.084 182.961 20.0562 182.257 21.9469C181.553 23.8377 180.542 25.4751 179.216 26.8774C177.898 28.2796 176.283 29.3742 174.369 30.1703C172.456 30.9665 170.29 31.3645 167.853 31.3645C165.417 31.3645 163.278 30.9665 161.355 30.1703C159.433 29.3742 157.809 28.2796 156.491 26.8774C155.173 25.4751 154.154 23.8377 153.45 21.9469C152.746 20.0562 152.394 18.0207 152.394 15.8404C152.394 13.6602 152.746 11.5252 153.45 9.60728ZM159.767 19.5043C160.074 20.6894 160.57 21.766 161.238 22.7159C161.915 23.6658 162.79 24.4257 163.882 25.0047C164.965 25.5746 166.292 25.8641 167.844 25.8641C169.397 25.8641 170.723 25.5746 171.806 25.0047C172.889 24.4348 173.774 23.6658 174.451 22.7159C175.127 21.766 175.615 20.6985 175.922 19.5043C176.229 18.3192 176.382 17.0889 176.382 15.8314C176.382 14.5739 176.229 13.244 175.922 12.0137C175.615 10.7833 175.118 9.6887 174.451 8.72071C173.774 7.75272 172.889 6.98375 171.806 6.41381C170.723 5.84387 169.397 5.55438 167.844 5.55438C166.292 5.55438 164.965 5.84387 163.882 6.41381C162.799 6.98375 161.915 7.75272 161.238 8.72071C160.561 9.6887 160.074 10.7833 159.767 12.0137C159.46 13.244 159.307 14.5196 159.307 15.8314C159.307 17.1432 159.46 18.3102 159.767 19.5043Z" fill="white"/>
<path d="M194.937 0.730957V25.1479H210.261V30.6845H188.024V0.730957H194.937Z" fill="white"/>
<path d="M221.055 0.730957V30.6845H214.142V0.730957H221.055Z" fill="white"/>
<path d="M250.648 0.730957V6.26751H234.042V12.6816H249.276V17.802H234.042V25.1479H251V30.6845H227.129V0.730957H250.648Z" fill="white"/>
</svg>
