<svg width="28" height="28" viewBox="0 0 28 28" fill="none" xmlns="http://www.w3.org/2000/svg">
<g clip-path="url(#clip0_252_25656)">
<path d="M13.0377 14.9468L14.7091 16.6181C14.8588 16.7678 15.0888 16.8016 15.2752 16.7016L17.2782 15.6263C17.4263 15.5467 17.6053 15.5506 17.7499 15.6365L20.6723 17.3707C20.8808 17.4944 20.9648 17.7532 20.8672 17.9751C20.6175 18.5433 20.1629 19.5849 19.9823 20.0455C19.9444 20.1424 19.8878 20.2313 19.8091 20.2993C17.8615 21.9876 13.9865 19.9305 11.0205 16.9645C8.05401 13.9983 5.99696 10.1233 7.6852 8.17571C7.75343 8.09703 7.84225 8.04048 7.93906 8.00252C8.39946 7.82196 9.4412 7.3674 10.0095 7.11768C10.2314 7.0201 10.4902 7.104 10.6139 7.31254L12.3481 10.2349C12.4338 10.3795 12.4377 10.5585 12.3582 10.7067L11.283 12.7093C11.1829 12.8957 11.2167 13.1258 11.3664 13.2755L13.0377 14.9468Z" fill="#64BB94"/>
</g>
<circle cx="14" cy="14" r="13.5" stroke="#64BB94"/>
<defs>
<clipPath id="clip0_252_25656">
<rect width="14" height="14" fill="white" transform="translate(7 7)"/>
</clipPath>
</defs>
</svg>
